<svg xmlns="http://www.w3.org/2000/svg" xmlns:xlink="http://www.w3.org/1999/xlink" version="1.1" id="Capa_1" x="0px" y="0px" viewBox="0 0 512 512" style="enable-background:new 0 0 512 512;" xml:space="preserve" width="512" height="512" class=""><g><circle style="fill:#97CE2A" cx="256" cy="256" r="256" data-original="#F42727" class="active-path" data-old_color="#97CE29"></circle><path style="fill:#6EAA25" d="M512,256c0-10.357-0.632-20.564-1.827-30.599L394.244,109.473L93.667,151.854L60,242.082  l131.489,131.489l-80.756,39.291l94,94C221.297,510.229,238.441,512,256,512C397.385,512,512,397.385,512,256z" data-original="#D30F0F" class="" data-old_color="#6FAC25"></path><g>
	<rect x="60" y="176.75" style="fill:#FFB600;" width="36.602" height="65.33" data-original="#FFB600" class=""></rect>
	<path style="fill:#FFB600;" d="M89.5,182.259h-10v-16.973c0-10.542,8.577-19.119,19.119-19.119h29.075v10H98.619   c-5.028,0-9.119,4.091-9.119,9.119V182.259z" data-original="#FFB600" class=""></path>
</g><g>
	<rect x="415.4" y="176.75" style="fill:#FF9B32;" width="36.602" height="65.33" data-original="#FF9B32" class=""></rect>
	<path style="fill:#FF9B32;" d="M432.5,182.259h-10v-16.973c0-5.028-4.091-9.119-9.119-9.119h-29.075v-10h29.075   c10.542,0,19.119,8.577,19.119,19.119V182.259z" data-original="#FF9B32" class=""></path>
</g><path style="fill:#FFDA00;" d="M398.085,146.46c0-26.818-21.74-48.558-48.558-48.558H162.473c-26.818,0-48.558,21.74-48.558,48.558  v5.394h284.169L398.085,146.46L398.085,146.46z" data-original="#FFDA00" class=""></path><path style="fill:#FFB600;" d="M398.084,146.46c0-26.818-21.74-48.557-48.557-48.557h-93.956v53.952h142.513V146.46z" data-original="#FFB600" class=""></path><path style="fill:#FFDA00;" d="M407.585,161.354h-303.17V146.46c0-32.013,26.045-58.058,58.058-58.058h187.055  c32.013,0,58.058,26.044,58.058,58.058L407.585,161.354L407.585,161.354z M123.629,142.354h264.742  c-2.06-19.614-18.694-34.952-38.844-34.952H162.473C142.323,107.403,125.688,122.741,123.629,142.354z" data-original="#FFDA00" class=""></path><path style="fill:#FFB600;" d="M407.585,146.46c0-32.013-26.045-58.058-58.058-58.058h-93.956v19h93.956  c20.149,0,36.784,15.338,38.844,34.952h-132.8v19h152.014L407.585,146.46L407.585,146.46z" data-original="#FFB600" class=""></path><rect x="113.92" y="151.85" style="fill:#FFFFFF;" width="284.17" height="137.6" data-original="#FFFFFF" class=""></rect><rect x="255.57" y="151.85" style="fill:#F0F0F0;" width="142.51" height="137.6" data-original="#F0F0F0" class=""></rect><path style="fill:#FFDA00;" d="M407.585,298.955h-303.17V142.354h303.17V298.955z M123.415,279.955h265.17V161.354h-265.17  C123.415,161.354,123.415,279.955,123.415,279.955z" data-original="#FFDA00" class=""></path><polygon style="fill:#FFB600;" points="407.585,142.354 255.571,142.354 255.571,161.354 388.585,161.354 388.585,279.955   255.571,279.955 255.571,298.955 407.585,298.955 " data-original="#FFB600" class=""></polygon><path style="fill:#495959" d="M155.821,421.617h-27.276c-12.431,0-22.509-10.078-22.509-22.509v-49.945  c0-12.431,10.078-22.509,22.509-22.509h27.276c12.431,0,22.509,10.078,22.509,22.509v49.945  C178.33,411.54,168.252,421.617,155.821,421.617z" data-original="#495959" class=""></path><path style="fill:#3F4A4A;" d="M383.455,422.097h-27.276c-12.431,0-22.509-10.078-22.509-22.509v-49.945  c0-12.431,10.078-22.509,22.509-22.509h27.276c12.431,0,22.509,10.078,22.509,22.509v49.945  C405.964,412.02,395.886,422.097,383.455,422.097z" data-original="#3F4A4A" class=""></path><path style="fill:#FFDA00;" d="M385.788,383.575H126.212c-11.828,0-21.417-9.589-21.417-21.417v-87.763  c0-11.828,9.589-21.417,21.417-21.417h259.575c11.828,0,21.417,9.589,21.417,21.417v87.763  C407.205,373.986,397.616,383.575,385.788,383.575z" data-original="#FFDA00" class=""></path><path style="fill:#FFB600;" d="M385.788,252.978H255.571v130.598h130.216c11.829,0,21.417-9.589,21.417-21.417v-87.763  C407.205,262.566,397.616,252.978,385.788,252.978z" data-original="#FFB600" class=""></path><path style="fill:#607882;" d="M366.044,371.095H145.956c-12.195,0-22.081-9.886-22.081-22.081l0,0h264.249l0,0  C388.124,361.209,378.238,371.095,366.044,371.095z" data-original="#607882" class=""></path><path style="fill:#55696E" d="M255.571,349.014v22.081h110.472c12.195,0,22.081-9.886,22.081-22.081H255.571z" data-original="#55696E" class=""></path><path style="fill:#495959" d="M300.881,371.095h-89.763c-12.195,0-22.081-9.886-22.081-22.081l0,0h133.924l0,0  C322.962,361.209,313.076,371.095,300.881,371.095z" data-original="#495959" class=""></path><path style="fill:#3F4A4A;" d="M255.571,349.014v22.081h45.31c12.195,0,22.081-9.886,22.081-22.081H255.571z" data-original="#3F4A4A" class=""></path><path style="fill:#607882;" d="M366.044,344.445H145.956c-12.195,0-22.081-9.886-22.081-22.081l0,0h264.249l0,0  C388.124,334.559,378.238,344.445,366.044,344.445z" data-original="#607882" class=""></path><path style="fill:#55696E" d="M255.571,322.364v22.081h110.472c12.195,0,22.081-9.886,22.081-22.081H255.571z" data-original="#55696E" class=""></path><path style="fill:#495959" d="M300.881,344.445h-89.763c-12.195,0-22.081-9.886-22.081-22.081l0,0h133.924l0,0  C322.962,334.559,313.076,344.445,300.881,344.445z" data-original="#495959" class=""></path><path style="fill:#3F4A4A;" d="M255.571,322.364v22.081h45.31c12.195,0,22.081-9.886,22.081-22.081H255.571z" data-original="#3F4A4A" class=""></path><g>
	<path style="fill:#495959" d="M300.881,135.919h-89.763c-12.195,0-22.081-9.886-22.081-22.081l0,0h133.924l0,0   C322.962,126.033,313.076,135.919,300.881,135.919z" data-original="#495959" class=""></path>
	<path style="fill:#495959" d="M189.038,113.838c0,12.195,9.886,22.081,22.081,22.081h44.453v-22.081   C255.572,113.838,189.038,113.838,189.038,113.838z" data-original="#495959" class=""></path>
	<path style="fill:#495959" d="M255.571,113.838v22.081h45.31c12.195,0,22.081-9.886,22.081-22.081   C322.962,113.838,255.571,113.838,255.571,113.838z" data-original="#495959" class=""></path>
</g><path style="fill:#008FF9;" d="M138.876,312.949h39.454v-11.927c0-10.272-6.016-19.591-15.378-23.819l-15.559-7.028  c-13.896-6.277-29.638,3.886-29.638,19.134v2.52C117.755,303.493,127.212,312.949,138.876,312.949z" data-original="#008FF9" class=""></path><path style="fill:#005FF7" d="M373.124,312.949H333.67v-11.927c0-10.272,6.017-19.591,15.378-23.819l15.559-7.028  c13.896-6.277,29.638,3.886,29.638,19.134v2.52C394.244,303.493,384.788,312.949,373.124,312.949z" data-original="#005FF7" class=""></path></g> </svg>